<svg width="23" height="23" viewBox="0 0 23 23" fill="none" xmlns="http://www.w3.org/2000/svg">
    <g clip-path="url(#clip0_202_147)">
        <path d="M14.6658 22.5H7.51582C4.49082 22.5 3.11582 21.7667 1.96999 20.6667C0.824154 19.475 0.0908203 18.1 0.0908203 15.075V7.925C0.0908203 4.9 0.824154 3.525 1.92415 2.37917C3.11582 1.23333 4.49082 0.5 7.51582 0.5H14.6658C17.6908 0.5 19.0658 1.23333 20.2117 2.33333C21.3575 3.525 22.0908 4.9 22.0908 7.925V15.075C22.0908 18.1 21.3575 19.475 20.2575 20.6208C19.0658 21.7667 17.6908 22.5 14.6658 22.5ZM7.51582 1.875C4.67415 1.875 3.66582 2.60833 2.88665 3.34167C2.19915 4.075 1.46582 5.08333 1.46582 7.925V15.075C1.46582 17.9167 2.19915 18.925 2.93249 19.7042C3.66582 20.4375 4.67415 21.125 7.51582 21.125H14.6658C17.5075 21.125 18.5158 20.3917 19.295 19.6583C20.0283 18.925 20.7158 17.9167 20.7158 15.075V7.925C20.7158 5.08333 19.9825 4.075 19.2492 3.29583C18.5158 2.60833 17.5075 1.875 14.6658 1.875H7.51582Z" fill="#262626"/>
        <path d="M16.7283 12.1875H5.45331C5.08664 12.1875 4.76581 11.8667 4.76581 11.5C4.76581 11.1333 5.08664 10.8125 5.45331 10.8125H16.7283C17.095 10.8125 17.4158 11.1333 17.4158 11.5C17.4158 11.8667 17.095 12.1875 16.7283 12.1875Z" fill="#262626"/>
        <path d="M11.0908 17.825C10.7242 17.825 10.4033 17.5042 10.4033 17.1375V5.86249C10.4033 5.49582 10.7242 5.17499 11.0908 5.17499C11.4575 5.17499 11.7783 5.49582 11.7783 5.86249V17.1375C11.7783 17.5042 11.4575 17.825 11.0908 17.825Z" fill="#262626"/>
    </g>
    <defs>
        <clipPath id="clip0_202_147">
            <rect width="22" height="22" fill="white" transform="translate(0.0908203 0.5)"/>
        </clipPath>
    </defs>
</svg>