<svg width="23" height="23" viewBox="0 0 23 23" fill="none" xmlns="http://www.w3.org/2000/svg">
    <g clip-path="url(#clip0_2_967)">
        <path d="M17.1825 8.15415L13.8825 10.675C13.6534 10.8583 13.3325 10.8583 13.1034 10.675L10.6284 8.84165C9.89503 8.29165 8.84086 8.47498 8.33669 9.25415L5.22003 14.1583C4.89919 14.6166 5.49503 15.1666 5.95336 14.8458L9.29919 12.325C9.52836 12.1416 9.84919 12.1416 10.0784 12.325L12.5534 14.1583C13.2867 14.7083 14.3409 14.525 14.845 13.7458L17.9617 8.84165C18.2367 8.33748 17.6409 7.83331 17.1825 8.15415ZM11.5909 0.958313C5.63253 0.958313 1.04919 5.31248 1.04919 11.1791C1.04919 14.25 2.28669 16.9083 4.34919 18.7416C4.53253 18.8791 4.62419 19.1083 4.62419 19.3375L4.71586 21.2166C4.71586 21.675 5.12836 22.0416 5.54086 22.0416C5.63253 22.0416 5.77003 22.0416 5.86169 21.95L7.97003 21.0333C8.06169 20.9875 8.19919 20.9416 8.29086 20.9416C8.38253 20.9416 8.42836 20.9416 8.52003 20.9875C9.48253 21.2625 10.4909 21.4 11.5909 21.4C17.5492 21.4 22.1325 17.0458 22.1325 11.1791C22.1325 5.31248 17.5492 0.958313 11.5909 0.958313ZM11.5909 20.025C10.6742 20.025 9.75753 19.8875 8.88669 19.6583C8.70336 19.6125 8.52003 19.5666 8.29086 19.5666C7.97003 19.5666 7.69503 19.6125 7.37419 19.75L5.99919 20.3458V19.2916C5.99919 18.6958 5.72419 18.1458 5.26586 17.7333C3.43253 16.0833 2.42419 13.7458 2.42419 11.1791C2.42419 6.13748 6.36586 2.33331 11.5909 2.33331C16.8159 2.33331 20.7575 6.13748 20.7575 11.1791C20.7575 16.2208 16.8159 20.025 11.5909 20.025Z" fill="#262626"/>
    </g>
    <defs>
        <clipPath id="clip0_2_967">
            <rect width="22" height="22" fill="white" transform="translate(0.59082 0.5)"/>
        </clipPath>
    </defs>
</svg>