<svg width="76" height="32" viewBox="0 0 76 32" fill="none" xmlns="http://www.w3.org/2000/svg">
    <rect x="1.01538" y="1.01758" width="74.3427" height="30.4434" rx="3" stroke="#DBDBDB"/>
    <circle cx="41.9038" cy="12.5984" r="4.14331" fill="#161722"/>
    <path d="M35.1196 20.9045C35.1196 19.182 36.516 17.7856 38.2385 17.7856H45.3972C47.1197 17.7856 48.5161 19.182 48.5161 20.9045V24.0234H35.1196V20.9045Z" fill="#161722"/>
    <path fill-rule="evenodd" clip-rule="evenodd" d="M35.487 13.3755C35.6822 13.5707 35.6822 13.8873 35.487 14.0826L30.923 18.6465L28.4389 16.1626C28.2437 15.9674 28.2437 15.6508 28.4389 15.4555C28.6342 15.2603 28.9508 15.2603 29.146 15.4555L30.923 17.2323L34.7799 13.3755C34.9751 13.1802 35.2917 13.1802 35.487 13.3755Z" fill="#161722"/>
</svg>
