<svg width="23" height="23" viewBox="0 0 23 23" fill="none" xmlns="http://www.w3.org/2000/svg">
    <g clip-path="url(#clip0_2_966)">
        <path d="M20.945 22.5H13.8867C13.52 22.5 13.1992 22.1792 13.1992 21.8125V16.175C13.1992 14.9834 12.2367 14.0667 11.0909 14.0667C9.94503 14.0667 8.98253 15.0292 8.98253 16.175V21.8125C8.98253 22.1792 8.66169 22.5 8.29503 22.5H1.23669C0.870028 22.5 0.549194 22.1792 0.549194 21.8125V11.0417C0.549194 10.8584 0.640861 10.675 0.732528 10.5375L10.5867 0.683362C10.8617 0.408362 11.32 0.408362 11.5492 0.683362L21.4034 10.5375C21.5409 10.675 21.5867 10.8584 21.5867 11.0417V21.8125C21.6325 22.1792 21.3117 22.5 20.945 22.5Z" fill="#262626"/>
    </g>
    <defs>
        <clipPath id="clip0_2_966">
            <rect width="22" height="22" fill="white" transform="translate(0.0908203 0.5)"/>
        </clipPath>
    </defs>
</svg>