<svg width="23" height="23" viewBox="0 0 23 23" fill="none" xmlns="http://www.w3.org/2000/svg">
    <g clip-path="url(#clip0_2_970)">
        <path d="M15.9492 3.29584C18.5617 3.29584 20.7158 5.67917 20.7158 8.56667C20.7158 11.6833 18.0117 13.6083 15.445 15.9C12.8783 18.1917 11.5492 19.4292 11.0908 19.7042C10.5867 19.3833 8.93665 17.8708 6.73665 15.9C4.12415 13.6083 1.46582 11.6833 1.46582 8.56667C1.46582 5.67917 3.61999 3.29584 6.23249 3.29584C8.15749 3.29584 9.21165 4.2125 9.94499 5.26667C10.8158 6.45834 10.9533 7.05417 11.0908 7.05417C11.2283 7.05417 11.3658 6.45834 12.2367 5.26667C12.97 4.2125 14.0242 3.29584 15.9492 3.29584ZM15.9492 1.92084C13.8867 1.92084 12.3283 2.74584 11.0908 4.4875C9.85332 2.79167 8.29499 1.96667 6.23249 1.96667C2.84082 1.92084 0.0908203 4.9 0.0908203 8.56667C0.0908203 11.9125 2.56582 14.0667 4.94915 16.1292C5.22415 16.3583 5.54499 16.6333 5.81999 16.9083L6.87415 17.825C8.89082 19.6125 9.89915 20.5292 10.3575 20.8042C10.5867 20.9417 10.8617 21.0333 11.0908 21.0333C11.3658 21.0333 11.595 20.9417 11.8242 20.8042C12.2825 20.5292 13.1075 19.7958 15.3992 17.6875L16.3158 16.8625C16.6367 16.5875 16.9117 16.3125 17.2325 16.0833C19.6617 14.0667 22.0908 11.9583 22.0908 8.56667C22.0908 4.9 19.3408 1.92084 15.9492 1.92084Z" fill="#262626"/>
    </g>
    <defs>
        <clipPath id="clip0_2_970">
            <rect width="22" height="22" fill="white" transform="translate(0.0908203 0.5)"/>
        </clipPath>
    </defs>
</svg>