<svg width="24" height="23" viewBox="0 0 24 23" fill="none" xmlns="http://www.w3.org/2000/svg">
    <path fill-rule="evenodd" clip-rule="evenodd" d="M21.1642 0.722261C20.3832 -0.0587869 19.1168 -0.0587882 18.3358 0.722261L16.7822 2.27582L5.47892 13.5791L5.19404 13.864L5.18622 14.2668L5.12886 17.2237L5.10869 18.2631L6.14807 18.2429L9.10492 18.1855L9.50774 18.1777L9.79263 17.8928L21.0959 6.58952L22.6495 5.03596C23.4305 4.25491 23.4305 2.98858 22.6495 2.20754L21.1642 0.722261ZM19.75 2.13647L21.2353 3.62175L20.3888 4.4682L18.9036 2.98292L19.75 2.13647ZM17.4893 4.39714L18.9746 5.88241L8.6633 16.1937L7.14864 16.2231L7.17803 14.7084L17.4893 4.39714ZM2.75 6.72226C2.75 5.06541 4.09315 3.72226 5.75 3.72226H12.25C12.8023 3.72226 13.25 3.27455 13.25 2.72226C13.25 2.16998 12.8023 1.72226 12.25 1.72226H5.75C2.98858 1.72226 0.75 3.96084 0.75 6.72226V17.7223C0.75 20.4837 2.98858 22.7223 5.75 22.7223H16.75C19.5114 22.7223 21.75 20.4837 21.75 17.7223V11.2223C21.75 10.67 21.3023 10.2223 20.75 10.2223C20.1977 10.2223 19.75 10.67 19.75 11.2223V17.7223C19.75 19.3791 18.4069 20.7223 16.75 20.7223H5.75C4.09315 20.7223 2.75 19.3791 2.75 17.7223V6.72226Z" fill="black"/>
</svg>