<svg width="25" height="23" viewBox="0 0 25 23" fill="none" xmlns="http://www.w3.org/2000/svg">
    <path d="M23.5651 5.25618C23.2028 4.36656 22.6805 3.5604 22.0273 2.88282C21.3736 2.20322 20.6028 1.66315 19.757 1.29198C18.8799 0.90557 17.9391 0.707785 16.9893 0.710103C15.6569 0.710103 14.3569 1.09706 13.2271 1.82799C12.9569 2.00284 12.7001 2.19489 12.4569 2.40413C12.2136 2.19489 11.9568 2.00284 11.6866 1.82799C10.5568 1.09706 9.2568 0.710103 7.92435 0.710103C6.96488 0.710103 6.03514 0.905017 5.15674 1.29198C4.30808 1.66461 3.54321 2.20062 2.88644 2.88282C2.23237 3.55963 1.70988 4.36599 1.34858 5.25618C0.972901 6.18202 0.781006 7.16519 0.781006 8.17702C0.781006 9.13152 0.964792 10.1262 1.32966 11.138C1.63507 11.9836 2.07292 12.8607 2.63238 13.7464C3.51888 15.1481 4.73782 16.6099 6.25135 18.0918C8.7595 20.5483 11.2433 22.2452 11.3487 22.314L11.9893 22.7497C12.2731 22.9417 12.6379 22.9417 12.9217 22.7497L13.5623 22.314C13.6677 22.2423 16.1488 20.5483 18.6596 18.0918C20.1732 16.6099 21.3921 15.1481 22.2786 13.7464C22.8381 12.8607 23.2786 11.9836 23.5813 11.138C23.9462 10.1262 24.13 9.13152 24.13 8.17702C24.1327 7.16519 23.9408 6.18202 23.5651 5.25618ZM12.4569 20.4824C12.4569 20.4824 2.83509 13.9442 2.83509 8.17702C2.83509 5.25618 5.1135 2.88855 7.92435 2.88855C9.90006 2.88855 11.6136 4.05803 12.4569 5.7664C13.3001 4.05803 15.0136 2.88855 16.9893 2.88855C19.8002 2.88855 22.0786 5.25618 22.0786 8.17702C22.0786 13.9442 12.4569 20.4824 12.4569 20.4824Z" fill="#161722"/>
</svg>