<svg width="22" height="23" viewBox="0 0 22 23" fill="none" xmlns="http://www.w3.org/2000/svg">
    <path d="M18.8678 22.1836V17.0605C20.3419 15.2611 21.2263 12.97 21.2263 10.4756C21.2263 4.69061 16.474 0 10.6131 0C4.75229 0 -5.91278e-05 4.69061 -5.91278e-05 10.4756C-5.91278e-05 16.2606 4.75229 20.9512 10.6131 20.9512C12.573 20.9578 14.4992 20.4184 16.1933 19.3885L18.8678 22.1836ZM10.6131 18.4864C6.05418 18.4864 2.35843 14.9 2.35843 10.4756C2.35843 6.05121 6.05418 2.46485 10.6131 2.46485C15.1721 2.46485 18.8678 6.05121 18.8678 10.4756C18.8678 14.9 15.1721 18.4864 10.6131 18.4864Z" fill="#161722"/>
</svg>