<svg width="30" height="28" viewBox="0 0 30 28" fill="none" xmlns="http://www.w3.org/2000/svg">
    <path d="M27.7025 6.6031L13.2163 14.3577" stroke="#161722" stroke-width="2" stroke-linecap="round" stroke-linejoin="round"/>
    <path fill-rule="evenodd" clip-rule="evenodd" d="M28.6575 5.96586C28.845 6.31383 28.8041 6.74536 28.5523 7.0761L15.2417 24.5612C14.9746 24.912 14.5222 25.0817 14.0982 24.9899C13.6742 24.8982 13.3635 24.5635 13.3128 24.1438L12.1851 14.8093L4.73663 8.85301C4.40236 8.5857 4.28274 8.13852 4.43541 7.72695C4.58808 7.31539 4.98172 7.02388 5.42664 6.9929L27.673 5.44384C28.0874 5.41498 28.4701 5.61788 28.6575 5.96586ZM8.24566 8.88259L13.9213 13.4213C14.1219 13.5817 14.25 13.8116 14.2808 14.0665L15.1486 21.2499L25.4768 7.68276L8.24566 8.88259Z" fill="#161722"/>
</svg>