<svg width="25" height="24" viewBox="0 0 25 24" fill="none" xmlns="http://www.w3.org/2000/svg">
    <path fill-rule="evenodd" clip-rule="evenodd" d="M12.6687 2.44482C7.26828 2.44482 2.89038 6.82273 2.89038 12.2231C2.89038 17.6236 7.26828 22.0015 12.6687 22.0015C18.0691 22.0015 22.447 17.6236 22.447 12.2231C22.447 6.82273 18.0691 2.44482 12.6687 2.44482ZM0.890381 12.2231C0.890381 5.71816 6.16371 0.444824 12.6687 0.444824C19.1737 0.444824 24.447 5.71816 24.447 12.2231C24.447 18.7281 19.1737 24.0015 12.6687 24.0015C6.16371 24.0015 0.890381 18.7281 0.890381 12.2231Z" fill="black"/>
    <circle cx="16.811" cy="12.2231" r="1" fill="black"/>
    <circle cx="8.52637" cy="12.2231" r="1" fill="black"/>
    <path fill-rule="evenodd" clip-rule="evenodd" d="M8.1114 14.9692C8.30666 14.7739 8.62324 14.7739 8.81851 14.9692L10.1192 16.2698C11.486 17.6366 13.7021 17.6366 15.0689 16.2698L16.3694 14.9692C16.5647 14.7739 16.8813 14.7739 17.0765 14.9692C17.2718 15.1645 17.2718 15.481 17.0765 15.6763L15.776 16.9769C14.0187 18.7342 11.1695 18.7342 9.41212 16.9769L8.11142 15.6763C7.91615 15.4811 7.91615 15.1645 8.1114 14.9692Z" fill="black"/>
</svg>