<svg width="20" height="20" viewBox="0 0 20 20" fill="none" xmlns="http://www.w3.org/2000/svg">
    <path d="M8.61373 15C10.0189 14.9997 11.3836 14.5045 12.4905 13.5934L15.9707 17.2567L17.0901 16.0784L13.6099 12.415C14.476 11.2497 14.9467 9.81288 14.9471 8.33335C14.9471 4.65752 12.1058 1.66669 8.61373 1.66669C5.12169 1.66669 2.2804 4.65752 2.2804 8.33335C2.2804 12.0092 5.12169 15 8.61373 15ZM8.61373 3.33335C11.2334 3.33335 13.3637 5.57585 13.3637 8.33335C13.3637 11.0909 11.2334 13.3334 8.61373 13.3334C5.9941 13.3334 3.86373 11.0909 3.86373 8.33335C3.86373 5.57585 5.9941 3.33335 8.61373 3.33335Z" fill="#8E8E8E"/>
</svg>